<?xml version="1.0" encoding="utf-8"?>
<!-- Generator: Adobe Illustrator 21.0.0, SVG Export Plug-In . SVG Version: 6.00 Build 0)  -->
<svg version="1.1" id="Layer_1" xmlns="http://www.w3.org/2000/svg" xmlns:xlink="http://www.w3.org/1999/xlink" x="0px" y="0px"
	 width="166.1px" height="48.1px" viewBox="0 0 166.1 48.1" enable-background="new 0 0 166.1 48.1" xml:space="preserve">
<g>
	<g>
		<g id="XMLID_1_">
			<polygon id="XMLID_8_" fill="#FFFFFF" points="20,24.7 11.1,34.1 21.4,36.9 28.3,29.2 			"/>
			<polygon id="XMLID_7_" fill="#FFFFFF" points="22.8,37.3 29.3,39.1 34.8,32.6 29.5,29.8 			"/>
			<polygon id="XMLID_6_" fill="#FFFFFF" points="36.6,21.6 30.4,28.6 35.6,31.6 40.7,25.5 			"/>
			<polygon id="XMLID_5_" fill="#FFFFFF" points="35.7,20.8 29.3,14.8 21.2,23.3 29.4,27.9 			"/>
			<path id="XMLID_2_" fill="#FFFFFF" d="M35.5,2.7c-9.7-6.1-23.6-1.4-31,10.4C-2.9,24.9-1,39.4,8.7,45.5s23.6,1.4,31-10.4
				C47.1,23.2,45.2,8.7,35.5,2.7z M38.3,34.4c-5.8,9.1-16.4,12.8-23.7,8.1C7.2,37.9,6,26.7,11.8,17.6c5.8-9.1,16.4-12.8,23.7-8.1
				S44.1,25.3,38.3,34.4z"/>
		</g>
	</g>
	<g>
		<path fill="#FFFFFF" d="M60.1,39c0,3.1,0.1,3.5,2,3.7l0.8,0.1c0.2,0.1,0.1,0.7-0.1,0.7c-1.7-0.1-2.7-0.1-3.9-0.1
			c-1.2,0-2.3,0-3.6,0.1c-0.2-0.1-0.2-0.6-0.1-0.7l0.6-0.1c1.7-0.2,1.8-0.6,1.8-3.7V28c0-2.5-0.1-3-1.4-3.2l-1.1-0.1
			C55,24.5,55,24.1,55.2,24c1.6-0.2,3.4-0.2,5.9-0.2s4.3,0.3,5.7,1.2c1.4,0.9,2.4,2.4,2.4,4.5c0,2.7-1.7,4.1-3,4.7
			c-1.3,0.6-2.9,0.9-4.1,0.9c-0.2-0.1-0.2-0.5,0-0.6c3.2-0.6,4.4-2.4,4.4-5c0-2.9-1.7-4.7-4.8-4.7c-1.6,0-1.6,0.1-1.6,1.1V39z"/>
		<path fill="#FFFFFF" d="M72.5,34.9c0-1.2,0-1.3-0.8-1.8l-0.3-0.2c-0.1-0.1-0.1-0.4,0-0.5c0.7-0.2,2.4-1,3.1-1.5
			c0.1,0,0.3,0.1,0.3,0.2c-0.1,1-0.1,2.5-0.1,3.7v5.3c0,2.1,0.1,2.4,1.1,2.6l0.6,0.1c0.2,0.1,0.1,0.7-0.1,0.7
			c-0.9-0.1-1.8-0.1-2.8-0.1c-1.1,0-2,0-2.8,0.1c-0.2-0.1-0.3-0.6-0.1-0.7l0.6-0.1c1.1-0.1,1.1-0.4,1.1-2.6V34.9z M74.9,26.4
			c0,1.1-0.7,1.5-1.6,1.5c-0.9,0-1.5-0.7-1.5-1.5c0-1,0.7-1.6,1.6-1.6C74.3,24.9,74.9,25.6,74.9,26.4"/>
		<path fill="#FFFFFF" d="M81.8,43.4c-1.6,0-2.8,0-3.1,0.1c-0.1-0.1-0.2-0.2-0.2-0.3c0.6-0.7,2-2.8,2.8-4.4l3.1-5.3
			c0.5-0.8,0.3-0.9-0.3-0.9h-2c-0.9,0-1.6,0.1-2,0.4c-0.5,0.4-0.8,1.1-1.1,1.7c-0.1,0.2-0.6,0.1-0.7-0.1c0.1-0.8,0.6-2.8,1-3.5
			c0.1-0.1,0.3-0.1,0.4,0c0.1,0.5,0.4,0.5,2.1,0.5h4.2c0.8,0,1.4,0,1.8-0.1c0.1,0.1,0.2,0.1,0.1,0.3c-0.6,0.9-1.3,2-2.2,3.4l-3.6,6
			c-0.6,1.1-0.6,1.2,0.6,1.2h1c1.2,0,2.7,0,3.5-0.9c0.3-0.4,0.6-1,0.9-1.7c0.2-0.1,0.6-0.1,0.7,0.2c-0.3,1.5-0.7,2.8-1.1,3.4
			c-1-0.1-2-0.1-3.3-0.1H81.8z"/>
		<path fill="#FFFFFF" d="M93.6,43.4c-1.6,0-2.8,0-3.1,0.1c-0.1-0.1-0.2-0.2-0.2-0.3c0.6-0.7,2-2.8,2.8-4.4l3.1-5.3
			c0.5-0.8,0.3-0.9-0.3-0.9h-2c-0.9,0-1.6,0.1-2,0.4c-0.5,0.4-0.8,1.1-1.1,1.7c-0.1,0.2-0.6,0.1-0.7-0.1c0.1-0.8,0.6-2.8,1-3.5
			c0.1-0.1,0.3-0.1,0.4,0c0.1,0.5,0.4,0.5,2.1,0.5h4.2c0.8,0,1.4,0,1.8-0.1c0.1,0.1,0.2,0.1,0.1,0.3c-0.6,0.9-1.3,2-2.2,3.4l-3.6,6
			c-0.6,1.1-0.6,1.2,0.6,1.2h1c1.2,0,2.7,0,3.5-0.9c0.3-0.4,0.6-1,0.9-1.7c0.2-0.1,0.6-0.1,0.7,0.2c-0.3,1.5-0.7,2.8-1.1,3.4
			c-1-0.1-2-0.1-3.3-0.1H93.6z"/>
		<path fill="#FFFFFF" d="M108.4,37.3c0.4-0.1,0.5-0.4,0.5-0.9l0-1.4c0-1.1-0.3-2.6-2.2-2.6c-0.8,0-1.8,0.4-1.9,1.3
			c0,0.5-0.1,0.8-0.3,1c-0.4,0.4-1.2,0.6-1.7,0.6c-0.3,0-0.4-0.1-0.4-0.4c0-1.5,3.4-3.6,5.5-3.6c2.1,0,3.2,1.2,3.1,3.5l-0.2,5.2
			c-0.1,1.4,0.2,2.6,1.4,2.6c0.3,0,0.6-0.1,0.7-0.2c0.1-0.1,0.3-0.2,0.4-0.2c0.1,0,0.2,0.2,0.2,0.4c0,0.1-1,1.3-2.5,1.3
			c-0.7,0-1.4-0.3-1.9-0.9c-0.1-0.2-0.3-0.4-0.5-0.4c-0.2,0-0.6,0.3-1.2,0.6c-0.7,0.4-1.3,0.7-2.1,0.7c-0.9,0-1.6-0.2-2.1-0.7
			c-0.6-0.5-0.9-1.2-0.9-2.1c0-1.2,0.6-1.8,2.5-2.5L108.4,37.3z M106.5,42.5c0.6,0,1.5-0.4,1.8-0.7c0.4-0.4,0.4-0.8,0.4-1.4l0.1-1.8
			c0-0.3-0.1-0.4-0.3-0.4c-0.2,0-0.7,0.1-1.2,0.3c-1.8,0.6-2.6,1-2.6,2.2C104.7,41.2,105,42.5,106.5,42.5"/>
		<path fill="#FFFFFF" d="M127.2,38.8c0-0.8-0.1-0.9-0.7-0.9h-6.9c-0.4-0.1-0.4-0.6-0.3-0.9l9.6-13.8c0.3-0.5,0.6-0.7,1-0.7h0.9
			c0.5,0,0.7,0.2,0.3,0.8l-8.9,12.3c-0.3,0.4-0.3,0.6,0.7,0.6h3.7c0.6,0,0.7-0.1,0.7-0.9v-4.2c0-0.7,0.2-0.9,0.7-1.1
			c0.8-0.3,2.4-0.9,2.9-0.9c0.3,0,0.4,0.2,0.4,0.5v5.6c0,0.8,0.1,0.9,0.7,0.9h2c0.4,0.2,0.4,1.4,0,1.7h-2c-0.6,0-0.7,0.1-0.7,0.9
			v0.8c0,2.4,0.2,2.7,1.5,2.8l0.6,0.1c0.3,0.2,0.2,0.9-0.1,1c-1.1-0.1-2.6-0.1-4-0.1c-2,0-3.7,0-4.7,0.1c-0.3-0.1-0.3-0.9-0.1-1
			l1.2-0.1c1.5-0.1,1.6-0.4,1.6-2.8V38.8z"/>
		<path fill="#FFFFFF" d="M138.4,28.6c0-3-0.1-3.4-1.3-3.5l-0.9-0.1c-0.3-0.1-0.3-0.8,0.1-1c2-0.1,4.3-0.3,6.9-0.3
			c2.5,0,4.2,0.3,5.4,0.8c1.8,0.7,3.6,2.3,3.6,5.1c0,4.9-4.9,5.6-6.5,5.6c-0.4,0-0.6,0-0.9,0c-0.2-0.1-0.3-0.6-0.1-0.8
			c2.5-0.8,3-2.5,3-4.7c0-2.2-1.1-4.6-3.8-4.6c-1.1,0-1.2,0.3-1.2,1.5v12.5c0,2.8,0.2,3,1.5,3.2l0.9,0.1c0.3,0.1,0.3,0.8,0,1
			c-1.7-0.1-3.1-0.1-4.5-0.1c-1.4,0-2.8,0-4.5,0.1c-0.3-0.2-0.4-0.9-0.1-1l0.8-0.1c1.3-0.2,1.5-0.4,1.5-3.2V28.6z"/>
		<path fill="#FFFFFF" d="M159.1,26.3c0,2.8-2.2,4.5-4.7,5c-0.5-0.1-0.6-0.7-0.3-0.9c1.1-0.4,2.5-1.4,2.5-2.8c0-1.2-0.9-1.7-1.6-1.8
			c-0.5-0.1-0.9-0.6-0.9-1.3c0-1,0.9-1.8,2-1.8C157.4,22.7,159.1,23.7,159.1,26.3"/>
		<path fill="#FFFFFF" d="M157.4,42.9c-0.3-0.6-0.5-2-0.5-3.4c0.2-0.3,0.8-0.3,1-0.1c0.4,1.2,1.5,3,3,3c0.9,0,1.5-0.5,1.5-1.5
			c0-1.1-0.9-1.7-2-2.2c-1.8-0.9-3.1-2-3.1-3.7c0-2.6,2.2-3.8,4.7-3.8c1.5,0,2.8,0.4,3.2,0.6c0.3,0.7,0.4,1.8,0.4,3
			c-0.1,0.3-0.9,0.3-1,0.1c-0.6-1.7-1.3-2.3-2.3-2.3c-0.9,0-1.5,0.5-1.5,1.3c0,0.7,0.6,1.2,1.9,1.9c2,1,3.3,2.2,3.3,4.2
			c0,2.6-2.3,4-5.1,4C159.4,43.8,158.2,43.5,157.4,42.9"/>
	</g>
</g>
</svg>
